<svg id="icon" xmlns="http://www.w3.org/2000/svg" xmlns:xlink="http://www.w3.org/1999/xlink" viewBox="0 0 99.42 116.5"><defs><style>.cls-1{fill:url(#linear-gradient);}.cls-2{fill:url(#linear-gradient-2);}.cls-3{fill:url(#linear-gradient-3);}.cls-4{fill:url(#linear-gradient-4);}.cls-5{fill:url(#linear-gradient-5);}</style><linearGradient id="linear-gradient" x1="45.87" y1="-193.48" x2="68.97" y2="-196.51" gradientTransform="matrix(1, 0, 0, -1, 0, -88.6)" gradientUnits="userSpaceOnUse"><stop offset="0" stop-color="#5fc8d7"/><stop offset="1" stop-color="#5e04ca"/></linearGradient><linearGradient id="linear-gradient-2" x1="50.62" y1="-195.3" x2="29.89" y2="-193.02" gradientTransform="matrix(1, 0, 0, -1, 0, -88.6)" gradientUnits="userSpaceOnUse"><stop offset="0" stop-color="#9f70f9"/><stop offset="1" stop-color="#501b92"/></linearGradient><linearGradient id="linear-gradient-3" x1="36.55" y1="-132.4" x2="76.2" y2="-131.93" gradientTransform="matrix(1, 0, 0, -1, 0, -88.6)" gradientUnits="userSpaceOnUse"><stop offset="0" stop-color="#5cade1"/><stop offset="1" stop-color="#7100c5"/></linearGradient><linearGradient id="linear-gradient-4" x1="42.71" y1="-132.53" x2="6.91" y2="-131.33" gradientTransform="matrix(1, 0, 0, -1, 0, -88.6)" gradientUnits="userSpaceOnUse"><stop offset="0" stop-color="#9250e2"/><stop offset="1" stop-color="#4f1992"/></linearGradient><linearGradient id="linear-gradient-5" x1="64.85" y1="-134.13" x2="98.8" y2="-128.48" gradientTransform="matrix(1, 0, 0, -1, 0, -88.6)" gradientUnits="userSpaceOnUse"><stop offset="0" stop-color="#72d7e5"/><stop offset="1" stop-color="#8c4bda"/></linearGradient></defs><title>bell-highlighted</title><g id="notifications"><path class="cls-1" d="M51.23,116.5a17.25,17.25,0,0,0,12.6-5.2A17.17,17.17,0,0,0,69,98.75l-.15-2H46.93a66.77,66.77,0,0,1-.15,8.5,71.73,71.73,0,0,1-1.55,10.3A19.53,19.53,0,0,0,51.23,116.5Z"/><path class="cls-2" d="M46.93,96.8H33.43v2a17.17,17.17,0,0,0,5.2,12.55,18,18,0,0,0,6.6,4.3,71.73,71.73,0,0,0,1.55-10.3A66.77,66.77,0,0,0,46.93,96.8Z"/><path class="cls-3" d="M55.38,0l-.15.15A61.27,61.27,0,0,0,40.83,22a70.53,70.53,0,0,0-4.15,23.6A56.27,56.27,0,0,0,39,60.85q1.31,5.06,4.65,15.7a105.36,105.36,0,0,1,2.3,10.35H77a86.44,86.44,0,0,0-5.1-24.3c-.13-.37-.28-.75-.45-1.15q-2.36-5.75-8.5-17.15-5.8-10.24-7.5-17.9-2.55-11.29,0-26.25Z"/><path class="cls-4" d="M55.23.15,55.38,0a1.48,1.48,0,0,1-.25.15,122.51,122.51,0,0,0-40.7,38Q-1.82,62.41.23,82.3a44.2,44.2,0,0,0,1,4.6H45.93a105.36,105.36,0,0,0-2.3-10.35Q40.28,65.9,39,60.85a56.27,56.27,0,0,1-2.3-15.3A70.53,70.53,0,0,1,40.83,22,61.27,61.27,0,0,1,55.23.15Z"/><path class="cls-5" d="M79.58,34.4q-4.65-5.1-8.15-9-5-5.59-7.6-8.85Q56.33,7,55.38.15q-2.51,15,0,26.25,1.7,7.65,7.5,17.9,6.15,11.4,8.5,17.15c.17.4.32.78.45,1.15A86.44,86.44,0,0,1,77,86.9H98.43a18.91,18.91,0,0,0,.85-4.6Q101.08,59.54,79.58,34.4Z"/></g></svg>