<svg id="icon" xmlns="http://www.w3.org/2000/svg" viewBox="0 0 99.42 116.5"><defs><style>.cls-1{fill:#d1d1d1;}</style></defs><title>bell</title><path class="cls-1" d="M46.93,96.8H33.43v2a17.17,17.17,0,0,0,5.2,12.55,18,18,0,0,0,6.6,4.3,19.53,19.53,0,0,0,6,.9,17.25,17.25,0,0,0,12.6-5.2A17.17,17.17,0,0,0,69,98.75l-.15-2Z" transform="translate(0 0)"/><path class="cls-1" d="M79.58,34.4q-4.65-5.1-8.15-9-5-5.59-7.6-8.85Q56.33,7,55.38.15V0a1.48,1.48,0,0,1-.25.15,122.51,122.51,0,0,0-40.7,38Q-1.82,62.41.23,82.3a44.2,44.2,0,0,0,1,4.6H98.43a18.91,18.91,0,0,0,.85-4.6Q101.08,59.54,79.58,34.4Z" transform="translate(0 0)"/></svg>