<svg id="icon" xmlns="http://www.w3.org/2000/svg" viewBox="0 0 114.61 100.83"><defs><style>.cls-1{fill:#d1d1d1;}</style></defs><title>heart</title><path class="cls-1" d="M114.36,25A26.82,26.82,0,0,0,107,9.48,30.73,30.73,0,0,0,91.36.58a24.74,24.74,0,0,0-13.6.85,34.29,34.29,0,0,0-4.65,2.1,40.43,40.43,0,0,0-15.8,15.25A40.8,40.8,0,0,0,41.41,3.53Q32.16-1.42,23.21.58A31,31,0,0,0,7.41,9.23,24.87,24.87,0,0,0,.16,25q-2.05,24.11,22.7,45.05,6.3,5.51,18.1,15,8.79,8.36,9.9,15.7Q81.35,84.69,98,66.13,116.65,45.28,114.36,25Z" transform="translate(0 0)"/></svg>