<svg id="icon" xmlns="http://www.w3.org/2000/svg" xmlns:xlink="http://www.w3.org/1999/xlink" viewBox="0 0 114.61 100.83"><defs><style>.cls-1{fill:url(#radial-gradient);}.cls-2{fill:url(#linear-gradient);}.cls-3{fill:url(#linear-gradient-2);}</style><radialGradient id="radial-gradient" cx="19.87" cy="354.51" r="34.51" gradientTransform="matrix(0.91, 0.4, 0.77, -1.76, -221.84, 661.53)" gradientUnits="userSpaceOnUse"><stop offset="0.41" stop-color="#45098d"/><stop offset="1" stop-color="#6d24c5"/></radialGradient><linearGradient id="linear-gradient" x1="66.81" y1="264.87" x2="13.01" y2="237.09" gradientTransform="matrix(1, 0, 0, -1, 0, 299.57)" gradientUnits="userSpaceOnUse"><stop offset="0" stop-color="#4f1a91"/><stop offset="0.53" stop-color="#8a4ad8"/><stop offset="0.96" stop-color="#5ad1d5"/></linearGradient><linearGradient id="linear-gradient-2" x1="63.64" y1="248.37" x2="95.86" y2="251.3" gradientTransform="matrix(1, 0, 0, -1, 0, 299.57)" gradientUnits="userSpaceOnUse"><stop offset="0" stop-color="#5fc8d7"/><stop offset="1" stop-color="#8400ff"/></linearGradient></defs><title>heart-highlighted</title><g id="heart"><path class="cls-1" d="M91.36.58a24.74,24.74,0,0,0-13.6.85q10,.81,12.55,12.35,2.34,10.75-2.25,27.35A127.86,127.86,0,0,1,74,73.48q-10.35,17-23.15,27.35Q81.35,84.69,98,66.13q18.69-20.85,16.4-41.1A26.82,26.82,0,0,0,107,9.48,30.73,30.73,0,0,0,91.36.58Z"/><path class="cls-2" d="M65.16,36a73.54,73.54,0,0,0-7.85-17.2A40.8,40.8,0,0,0,41.41,3.53Q32.16-1.42,23.21.58A31,31,0,0,0,7.41,9.23,24.87,24.87,0,0,0,.16,25q-2.05,24.11,22.7,45.05,6.3,5.51,18.1,15,8.79,8.36,9.9,15.7,9.15-14,13-26a80.43,80.43,0,0,0,3.55-20.85A53.06,53.06,0,0,0,65.16,36Z"/><path class="cls-3" d="M73.11,3.53a40.43,40.43,0,0,0-15.8,15.25A73.54,73.54,0,0,1,65.16,36a53.06,53.06,0,0,1,2.3,18,80.43,80.43,0,0,1-3.55,20.85q-3.9,12.06-13,26.05Q63.66,90.44,74,73.48a127.86,127.86,0,0,0,14-32.35q4.59-16.59,2.25-27.35Q87.76,2.23,77.76,1.43A34.29,34.29,0,0,0,73.11,3.53Z"/></g></svg>