<svg id="icon" xmlns="http://www.w3.org/2000/svg" xmlns:xlink="http://www.w3.org/1999/xlink" viewBox="0 0 122.7 98.45"><defs><style>.cls-1{fill:url(#linear-gradient);}.cls-2{fill:url(#linear-gradient-2);}.cls-3{fill:url(#linear-gradient-3);}</style><linearGradient id="linear-gradient" x1="100.15" y1="-146.03" x2="56.1" y2="-158.91" gradientTransform="matrix(1, 0, 0, -1, 0, -104.6)" gradientUnits="userSpaceOnUse"><stop offset="0" stop-color="#5cade1"/><stop offset="1" stop-color="#7100c5"/></linearGradient><linearGradient id="linear-gradient-2" x1="45.58" y1="-180.04" x2="41.38" y2="-123.74" gradientTransform="matrix(1, 0, 0, -1, 0, -104.6)" gradientUnits="userSpaceOnUse"><stop offset="0" stop-color="#72d7e5"/><stop offset="1" stop-color="#6515c5"/></linearGradient><linearGradient id="linear-gradient-3" x1="94.61" y1="-156.17" x2="131.31" y2="-156.17" gradientTransform="matrix(1, 0, 0, -1, 0, -104.6)" gradientUnits="userSpaceOnUse"><stop offset="0" stop-color="#340075"/><stop offset="1" stop-color="#9858ea"/></linearGradient></defs><title>message-highlighted</title><g id="messages"><path class="cls-1" d="M37,17.6a24.6,24.6,0,0,0-.65,17.95Q40.25,48,55,52.2q28.95,8,34,26.65a28.84,28.84,0,0,1-3,19.6A87.16,87.16,0,0,0,104.35,50.7q2.06-27.79-14.9-46A83,83,0,0,0,61.75,0,37.82,37.82,0,0,0,48.5,5.05Q40.1,10.15,37,17.6Z"/><path class="cls-2" d="M17.2,12.15Q0,24.2,0,41.75q0,17.4,17.2,29.5Q34.71,83.6,60.25,83.6A87.61,87.61,0,0,0,89,78.85Q83.95,60.21,55,52.2,40.26,48,36.35,35.55A24.6,24.6,0,0,1,37,17.6q3.11-7.46,11.5-12.55A37.82,37.82,0,0,1,61.75,0h-1.5Q34.6,0,17.2,12.15Z"/><path class="cls-3" d="M122.2,36.75a32.75,32.75,0,0,0-7.7-15.65,53,53,0,0,0-10.2-9A67.92,67.92,0,0,0,89.45,4.7q17,18.2,14.9,46A87.16,87.16,0,0,1,86,98.45q14.7-7,25.35-22.55,11.36-16.76,11.35-34.15A40.9,40.9,0,0,0,122.2,36.75Z"/></g></svg>