<svg width="123" height="99" viewBox="0 0 123 99" fill="none" xmlns="http://www.w3.org/2000/svg">
<g clip-path="url(#clip0)">
<path d="M122.2 36.75C121.095 30.9333 118.434 25.5248 114.5 21.1C111.501 17.6744 108.072 14.6495 104.3 12.1C99.671 9.03578 94.6838 6.55057 89.45 4.70004C80.5508 1.57064 71.1833 -0.0187928 61.75 4.34027e-05H60.25C43.15 4.34027e-05 28.8 4.05004 17.2 12.15C5.73333 20.1834 0 30.05 0 41.75C0 53.35 5.73333 63.1834 17.2 71.25C28.8733 79.4834 43.2233 83.6 60.25 83.6C70.0313 83.6327 79.749 82.0272 89 78.85C90.3479 85.5326 89.2851 92.4766 86 98.45C95.8 93.7834 104.25 86.2667 111.35 75.9C118.923 64.7267 122.707 53.3434 122.7 41.75C122.636 40.0747 122.469 38.4049 122.2 36.75V36.75Z" fill="#C4BED5"/>
</g>
<defs>
<clipPath id="clip0">
<rect width="122.7" height="98.45" fill="white"/>
</clipPath>
</defs>
</svg>
