<svg id="icon" xmlns="http://www.w3.org/2000/svg" viewBox="0 0 122.7 98.45"><defs><style>.cls-1{fill:#d1d1d1;}</style></defs><title>message</title><path class="cls-1" d="M122.2,36.75a32.75,32.75,0,0,0-7.7-15.65,53,53,0,0,0-10.2-9A67.92,67.92,0,0,0,89.45,4.7,83,83,0,0,0,61.75,0h-1.5Q34.6,0,17.2,12.15,0,24.2,0,41.75q0,17.4,17.2,29.5Q34.71,83.6,60.25,83.6A87.61,87.61,0,0,0,89,78.85a28.84,28.84,0,0,1-3,19.6q14.7-7,25.35-22.55,11.36-16.76,11.35-34.15A40.9,40.9,0,0,0,122.2,36.75Z" transform="translate(0 0)"/></svg>