<svg id="icon" xmlns="http://www.w3.org/2000/svg" viewBox="0 0 126.07 118.05"><defs><style>.cls-1{fill:#d1d1d1;}</style></defs><title>search</title><path class="cls-1" d="M88.12,74a46.81,46.81,0,0,0,7.2-33.25c-.07-.3-.14-.63-.2-1a47.1,47.1,0,0,0-5.5-15.8A48.63,48.63,0,0,0,78,10.45c-.74-.57-1.47-1.12-2.2-1.65A46.3,46.3,0,0,0,48.12,0,46.85,46.85,0,0,0,18.17,10.35Q1.22,23.85.07,45.4a49.91,49.91,0,0,0,.2,7.85A44.69,44.69,0,0,0,4.62,68.8a48.76,48.76,0,0,0,9.35,13A46.29,46.29,0,0,0,43.22,95.5a46.42,46.42,0,0,0,30.85-7.45l24.55,24.5a18.32,18.32,0,0,0,13.4,5.5,17.84,17.84,0,0,0,13.25-5.5l.8-.65ZM48.67,75h-1.4a25.72,25.72,0,0,1-19-7.9,26.06,26.06,0,0,1-7.9-19,25.67,25.67,0,0,1,7.9-19,25.24,25.24,0,0,1,17-7.8h.65l1.35-.05a26.13,26.13,0,0,1,19.1,7.85,25.71,25.71,0,0,1,7.9,19,25.78,25.78,0,0,1-7.9,19A25.48,25.48,0,0,1,50,75C49.53,75,49.1,75,48.67,75Z" transform="translate(0 0)"/></svg>