<svg id="icon" xmlns="http://www.w3.org/2000/svg" xmlns:xlink="http://www.w3.org/1999/xlink" viewBox="0 0 96.95 121.7"><defs><style>.cls-1{fill:url(#radial-gradient);}.cls-2{fill:url(#radial-gradient-2);}.cls-3{fill:url(#radial-gradient-3);}</style><radialGradient id="radial-gradient" cx="-275.95" cy="184.85" r="39.33" gradientTransform="matrix(1, 0, 0, -1.55, 294.1, 347.49)" gradientUnits="userSpaceOnUse"><stop offset="0.2" stop-color="#8c4bda"/><stop offset="0.8" stop-color="#72d7e5"/></radialGradient><radialGradient id="radial-gradient-2" cx="-275.95" cy="175" r="50.64" gradientTransform="matrix(1, 0, 0, -1.3, 299.95, 283.04)" gradientUnits="userSpaceOnUse"><stop offset="0.39" stop-color="#551f99"/><stop offset="1" stop-color="#a963fe"/></radialGradient><radialGradient id="radial-gradient-3" cx="-275.95" cy="156.7" r="27.73" gradientTransform="matrix(1, 0, 0, -1, 343.25, 195.4)" gradientUnits="userSpaceOnUse"><stop offset="0.21" stop-color="#2c3698"/><stop offset="1" stop-color="#5c66ce"/></radialGradient></defs><title>upload-highlighted</title><g id="upload"><path class="cls-1" d="M34.85,13.65,0,48.5H26.8Q40,69.76,34.7,95.35q-2.3,11.3-10.3,26.35,17.74-18.3,24.9-46.15Q58.75,38.46,34.85,13.65Z"/><path class="cls-2" d="M71.9,48.5Q71.4,24.4,48.4,0L34.85,13.65q23.9,24.8,14.45,61.9-7.15,27.86-24.9,46.15Q43,112.9,56.15,93.9,71,72.95,71.9,48.5Z"/><path class="cls-3" d="M97,48.5,48.4,0q23,24.41,23.5,48.5Z"/></g></svg>