<svg id="icon" xmlns="http://www.w3.org/2000/svg" viewBox="0 0 116.5 132.35"><defs><style>.cls-1{fill:#d1d1d1;}</style></defs><title>user</title><path class="cls-1" d="M112.1,110.35q-3.15-6.41-6.9-8.95-5.51-4-18.4-7Q75.6,91.95,74.05,89.2A16.86,16.86,0,0,1,72.5,83v-3.5l7.55-9q7.7-11.15,8.75-21.35,2.36-22-15-37.75A66.73,66.73,0,0,0,61.6,2.65L56,0a12.58,12.58,0,0,1,1,5q.15,5.45-4.8,7Q42.9,14.7,37.75,19.2,29.2,26.85,28.5,40.7A47.23,47.23,0,0,0,35,66.55a42.43,42.43,0,0,0,7.15,10l.25,4.15a19.16,19.16,0,0,1-2.25,8.5q-1.24,2.1-5.3,4a33.64,33.64,0,0,1-7.75,2.35c-.8.13-1.6.3-2.4.5a5.06,5.06,0,0,0-1,.2,31.79,31.79,0,0,0-12.45,5.1,23.36,23.36,0,0,0-6.5,6.8Q1.1,114,0,123.3a182.25,182.25,0,0,0,51.25,8.9q3.95.15,8,.15a190.07,190.07,0,0,0,57.3-9A56.58,56.58,0,0,0,112.1,110.35Z" transform="translate(0 0)"/></svg>