<svg id="icon" xmlns="http://www.w3.org/2000/svg" xmlns:xlink="http://www.w3.org/1999/xlink" viewBox="0 0 116.5 132.35"><defs><style>.cls-1{fill:url(#linear-gradient);}.cls-2{fill:url(#radial-gradient);}.cls-3{fill:url(#radial-gradient-2);}</style><linearGradient id="linear-gradient" x1="56.06" y1="244.01" x2="36.11" y2="247.23" gradientTransform="matrix(1, 0, 0, -1, 0, 334)" gradientUnits="userSpaceOnUse"><stop offset="0" stop-color="#72d7e5"/><stop offset="1" stop-color="#8c4bda"/></linearGradient><radialGradient id="radial-gradient" cx="-258.62" cy="405.3" r="47.08" gradientTransform="matrix(1, 0.09, 0.2, -2.25, 203.49, 997.54)" gradientUnits="userSpaceOnUse"><stop offset="0.26" stop-color="#608cdb"/><stop offset="1" stop-color="#7100c5"/></radialGradient><radialGradient id="radial-gradient-2" cx="-215.87" cy="382.4" r="79.53" gradientTransform="matrix(0.91, 0.42, 0.97, -2.07, -125.8, 949.7)" gradientUnits="userSpaceOnUse"><stop offset="0.21" stop-color="#5ad1d5"/><stop offset="0.55" stop-color="#6d18c8"/><stop offset="0.8" stop-color="#8c4cdb"/><stop offset="1" stop-color="#5ad1d5"/></radialGradient></defs><title>user-highlighted</title><g id="user"><path class="cls-1" d="M42.1,76.55l.25,4.15a19.16,19.16,0,0,1-2.25,8.5q-1.24,2.1-5.3,4a33.64,33.64,0,0,1-7.75,2.35c-.8.13-1.6.3-2.4.5a56.62,56.62,0,0,0,23.2-4.55,36.4,36.4,0,0,0,8.2-4.9A54,54,0,0,1,42.1,76.55Z"/><path class="cls-2" d="M57,5q.15,5.45-4.8,7Q42.9,14.7,37.75,19.2,29.2,26.85,28.5,40.7A47.23,47.23,0,0,0,35,66.55a42.43,42.43,0,0,0,7.15,10,54,54,0,0,0,13.95,10.1,36.4,36.4,0,0,1-8.2,4.9,56.62,56.62,0,0,1-23.2,4.55,5.06,5.06,0,0,0-1,.2,31.79,31.79,0,0,0-12.45,5.1,23.36,23.36,0,0,0-6.5,6.8Q1.1,114,0,123.3a182.25,182.25,0,0,0,51.25,8.9q14.3-27.45,17.65-69.3Q72.76,15.7,56,0A12.58,12.58,0,0,1,57,5Z"/><path class="cls-3" d="M73.75,11.3A66.73,66.73,0,0,0,61.6,2.65L56,0q16.8,15.71,13,62.9-3.34,41.85-17.65,69.3,3.95.15,8,.15a190.07,190.07,0,0,0,57.3-9,56.58,56.58,0,0,0-4.4-13q-3.15-6.41-6.9-8.95-5.51-4-18.4-7Q75.6,91.95,74.05,89.2A16.86,16.86,0,0,1,72.5,83v-3.5l7.55-9q7.7-11.15,8.75-21.35Q91.16,27,73.75,11.3Z"/></g></svg>